<?xml version="1.0" encoding="utf-8"?>
<!-- Generator: Adobe Illustrator 16.0.0, SVG Export Plug-In . SVG Version: 6.00 Build 0)  -->
<!DOCTYPE svg PUBLIC "-//W3C//DTD SVG 1.1//EN" "http://www.w3.org/Graphics/SVG/1.1/DTD/svg11.dtd">
<svg version="1.1" id="Capa_1" xmlns="http://www.w3.org/2000/svg" xmlns:xlink="http://www.w3.org/1999/xlink" x="0px" y="0px"
	 width="217.667px" height="33.667px" viewBox="0 0 217.667 33.667" enable-background="new 0 0 217.667 33.667"
	 xml:space="preserve">
<g>
	<path fill-rule="evenodd" clip-rule="evenodd" fill="#1C1C1C" d="M112.954,15.998c-1.173-1.423-2.648-2.137-4.427-2.218
		c-1.269-0.059-2.497,0.051-3.594,0.833c-1.112,0.794-1.35,2.8,0.188,3.351c1.205,0.432,2.484,0.689,3.75,0.902
		c1.92,0.322,3.842,0.592,5.509,1.709c1.509,1.01,2.189,2.477,2.313,4.239c0.287,4.116-2.654,6.312-6.072,6.828
		c-0.918,0.138-1.856,0.312-2.774,0.265c-2.302-0.113-4.573-0.398-6.465-1.951c-1.023-0.841-1.643-1.924-2.189-3.151
		c1.086-0.582,2.138-1.145,3.085-1.652c0.686,0.72,1.255,1.46,1.964,2.026c0.902,0.721,2.019,0.94,3.169,1.088
		c1.236,0.158,2.391-0.047,3.526-0.455c1.622-0.582,2.34-2.486,1.402-3.697c-0.665-0.86-1.641-1.188-2.653-1.397
		c-1.897-0.396-3.825-0.671-5.694-1.169c-1.856-0.495-3.27-1.702-3.699-3.617c-0.741-3.307,0.477-5.711,3.837-6.981
		c1.377-0.521,2.832-0.792,4.303-0.706c2.42,0.144,4.754,0.602,6.544,2.456c1.341,1.388,1.296,1.647-0.397,2.491
		C114.04,15.459,113.5,15.727,112.954,15.998z"/>
	<path fill-rule="evenodd" clip-rule="evenodd" fill="#1C1C1C" d="M168.478,18.5c0-2.512,0-4.989,0-7.515c1.172,0,2.314,0,3.496,0
		c0,6.776,0,13.542,0,20.343c-1.107,0-2.185,0-3.306,0c-0.081-0.516-0.162-1.035-0.245-1.561c-0.534,0.399-1.031,0.914-1.635,1.201
		c-2.682,1.273-5.252,0.871-7.627-0.779c-1.708-1.187-2.402-2.949-2.634-4.987c-0.241-2.119,0.094-4.061,1.29-5.831
		c1.037-1.537,2.547-2.295,4.337-2.629c1.488-0.275,2.93-0.178,4.292,0.457C167.145,17.527,167.76,18.032,168.478,18.5z
		 M164.041,28.243c2.358,0.023,4.115-1.729,4.137-4.123c0.021-2.311-1.913-4.127-4.077-4.072c-2.483,0.064-3.952,1.65-3.972,4.099
		C160.108,26.43,161.716,28.234,164.041,28.243z"/>
	<path fill-rule="evenodd" clip-rule="evenodd" fill="#1C1C1C" d="M4.463,10.911c0.088-0.463,0.156-0.822,0.237-1.25
		c1.165,0,2.341,0,3.517,0c1.748,0,3.497-0.041,5.244,0.014c1.425,0.044,2.795,0.394,3.725,1.576
		c0.415,0.527,0.813,1.198,0.884,1.84c0.23,2.098-0.016,4.126-1.737,5.636c-0.548,0.479-1.198,0.843-1.67,1.168
		c0.667,0.36,1.427,0.735,2.15,1.171c0.904,0.545,1.301,1.494,1.402,2.438c0.164,1.527,0.112,3.07-0.669,4.496
		c-0.682,1.246-1.68,2.122-2.969,2.635c-1.325,0.526-2.727,0.731-4.157,0.73c-2.763-0.002-5.527,0-8.291-0.002
		c-0.139,0-0.277-0.018-0.412-0.025c-0.065-1.231,0.071-1.436,1.522-1.508c0.836-0.039,1.124-0.521,1.228-1.151
		c0.243-1.464,0.39-2.944,0.598-4.414c0.211-1.491,0.459-2.976,0.67-4.466c0.215-1.518,0.409-3.037,0.602-4.557
		C6.448,14.366,6.5,13.479,6.65,12.61c0.178-1.035-0.124-1.463-1.163-1.535C5.169,11.053,4.855,10.975,4.463,10.911z M6.626,29.659
		c1.652,0,3.258,0.086,4.85-0.029c1.098-0.081,2.2-0.416,3.013-1.252c1.288-1.324,1.568-2.952,1.25-4.707
		c-0.309-1.709-1.469-2.346-2.75-2.489c-1.534-0.173-3.092-0.114-4.64-0.178c-0.479-0.021-0.557,0.202-0.609,0.632
		c-0.182,1.516-0.435,3.023-0.649,4.537C6.93,27.311,6.786,28.452,6.626,29.659z M9.225,11.227c-0.396,2.866-0.762,5.52-1.142,8.273
		c1.27-0.068,2.5-0.031,3.695-0.223c1.562-0.25,2.939-0.93,3.555-2.533c0.227-0.593,0.3-1.254,0.389-1.891
		c0.207-1.485-0.391-2.869-1.785-3.164C12.422,11.371,10.84,11.372,9.225,11.227z"/>
	<path fill-rule="evenodd" clip-rule="evenodd" fill="#1C1C1C" d="M202.084,24.186c0.201,4.064-2.88,7.807-8.077,7.482
		c-3.541-0.222-7.156-2.893-6.818-8.105c0.264-4.077,3.109-6.916,7.477-6.928C198.949,16.625,202.192,19.708,202.084,24.186z
		 M190.781,24.194c0.129,0.582,0.182,1.195,0.399,1.742c0.911,2.286,3.353,2.942,5.307,1.848c2.216-1.24,2.487-4.225,1.095-6.223
		c-0.913-1.311-2.597-1.813-4.014-1.406C191.863,20.647,190.738,22.506,190.781,24.194z"/>
	<path fill-rule="evenodd" clip-rule="evenodd" fill="#1C1C1C" d="M136.978,16.93c1.24,0,2.412,0,3.688,0c0,0.249,0,0.498,0,0.746
		c0,2.387-0.048,4.774,0.015,7.159c0.058,2.209,1.553,3.516,3.57,3.388c1.564-0.1,2.761-1.114,3.212-2.908
		c0.112-0.445,0.145-0.92,0.147-1.382c0.015-2.313,0.007-4.626,0.007-6.987c1.227,0,2.416,0,3.646,0c0,4.787,0,9.568,0,14.384
		c-1.106,0-2.184,0-3.299,0c-0.076-0.519-0.152-1.039-0.244-1.654c-0.492,0.344-0.939,0.688-1.416,0.982
		c-3.404,2.098-8.005,0.733-9.027-3.642c-0.193-0.83-0.271-1.703-0.286-2.557c-0.038-2.27-0.013-4.537-0.013-6.806
		C136.978,17.422,136.978,17.194,136.978,16.93z"/>
	<path fill-rule="evenodd" clip-rule="evenodd" fill="#1C1C1C" d="M88.854,17.163c0.255-1.575,0.502-3.084,0.743-4.592
		c0.146-0.912-0.102-1.281-0.989-1.5c-0.467-0.116-0.934-0.23-1.405-0.348c0.047-0.295,0.057-0.579,0.145-0.836
		c0.049-0.145,0.214-0.332,0.348-0.35c1.244-0.167,2.493-0.289,3.737-0.447c0.646-0.084,0.8,0.246,0.719,0.787
		c-0.196,1.33-0.404,2.658-0.608,3.986c-0.222,1.443-0.453,2.885-0.663,4.328c-0.207,1.424-0.385,2.853-0.591,4.275
		c-0.269,1.857-0.604,3.707-0.816,5.57c-0.205,1.799-0.017,1.94,1.769,1.764c0.272-0.027,0.542-0.08,0.86-0.129
		c0.098,0.371,0.194,0.738,0.296,1.125c-1.164,0.612-2.346,0.974-3.639,0.848c-0.853-0.084-1.312-0.647-1.498-1.845
		c-0.548,0.358-1.06,0.749-1.618,1.052c-1.924,1.043-3.863,1.262-5.77-0.047c-0.991-0.68-1.496-1.713-1.744-2.828
		c-0.637-2.856-0.257-5.662,0.893-8.306c1.054-2.427,3.042-4.271,6.163-4.19c1.103,0.029,2.052,0.501,2.929,1.136
		C88.338,16.778,88.559,16.946,88.854,17.163z M80.185,25.262c0.066,0.673,0.062,1.362,0.212,2.017
		c0.375,1.62,1.09,2.544,2.861,2.585c1.199,0.027,2.23-0.6,3.237-1.246c0.593-0.382,0.743-0.898,0.832-1.49
		c0.397-2.637,0.785-5.275,1.165-7.914c0.022-0.148-0.001-0.376-0.097-0.459c-0.888-0.777-1.897-1.347-3.091-1.424
		c-2.182-0.141-3.457,1.18-4.195,3.019C80.481,21.912,80.191,23.561,80.185,25.262z"/>
	<path fill-rule="evenodd" clip-rule="evenodd" fill="#1C1C1C" d="M127.589,12.918c0,1.371,0,2.687,0,4.08c1.282,0,2.52,0,3.807,0
		c0,1.074,0,2.074,0,3.151c-1.285,0-2.57,0-3.991,0c0.073,2.306,0.082,4.533,0.243,6.752c0.076,1.062,1.212,1.423,2.037,1.29
		c0.449-0.07,0.883-0.25,1.391-0.4c0.348,1.031,0.688,2.047,1.049,3.123c-2.102,0.773-4.226,1.035-6.229-0.153
		c-1.317-0.781-1.909-2.153-1.952-3.668c-0.06-2.053-0.015-4.108-0.015-6.163c0-0.23,0-0.461,0-0.744c-0.897,0-1.739,0-2.638,0
		c0-1.049,0-2.05,0-3.128c0.839,0,1.698,0,2.638,0c0-1.106-0.021-2.14,0.017-3.169c0.008-0.219,0.199-0.6,0.348-0.621
		C125.367,13.112,126.454,13.03,127.589,12.918z"/>
	<path fill-rule="evenodd" clip-rule="evenodd" fill="#1C1C1C" d="M50.023,17.209c0.164-0.46,0.255-0.848,0.441-1.181
		c0.099-0.181,0.384-0.405,0.543-0.376c0.472,0.084,0.93,0.269,1.377,0.452c0.074,0.03,0.117,0.263,0.095,0.388
		c-0.381,2.117-0.807,4.227-1.156,6.349c-0.29,1.763-0.49,3.541-0.731,5.313c-0.016,0.115-0.012,0.241-0.056,0.345
		c-0.375,0.882,0.472,1.552,1.373,1.432c0.228-0.031,0.467-0.049,0.676-0.135c0.613-0.252,0.861-0.033,0.86,0.594
		c0,0.102,0.081,0.205,0.147,0.359c-1.211,0.733-2.503,1.057-3.877,0.863c-0.824-0.115-1.215-0.784-1.275-1.879
		c-0.51,0.373-0.979,0.779-1.505,1.088c-1.707,1.009-3.528,1.236-5.323,0.356c-1.321-0.647-2.043-1.877-2.356-3.301
		c-0.343-1.558-0.218-3.126-0.024-4.7c0.215-1.757,0.746-3.391,1.722-4.859c1.281-1.924,3.096-2.909,5.418-2.83
		C47.776,15.536,48.922,16.237,50.023,17.209z M41.338,25.442c0.052,0.523,0.05,1.188,0.192,1.82
		c0.273,1.211,0.926,2.42,2.448,2.555c1.403,0.125,2.546-0.426,3.619-1.213c0.269-0.197,0.635-0.436,0.697-0.713
		c0.253-1.149,0.417-2.32,0.595-3.485c0.214-1.397,0.361-2.806,0.626-4.193c0.256-1.335,0.306-1.326-0.801-2.048
		c-0.059-0.039-0.111-0.087-0.17-0.125c-2.247-1.454-4.67-0.66-5.898,1.561C41.662,21.381,41.469,23.333,41.338,25.442z"/>
	<path fill-rule="evenodd" clip-rule="evenodd" fill="#1C1C1C" d="M60.925,31.205c-0.602,0.06-1.16,0.031-1.66,0.187
		c-0.663,0.205-0.624-0.189-0.576-0.567c0.094-0.734,0.251-1.46,0.362-2.19c0.215-1.424,0.412-2.848,0.622-4.271
		c0.218-1.467,0.448-2.933,0.663-4.401c0.077-0.528,0.164-1.061,0.179-1.593c0.02-0.722-0.297-1.042-1.005-1.04
		c-0.416,0.002-0.835,0.059-1.246,0.128c-0.667,0.112-0.738,0.035-0.934-1.279c1.086-0.232,2.174-0.583,3.284-0.672
		c1.508-0.122,1.733,0.126,2.136,1.569c0.041,0.146,0.056,0.302,0.071,0.383c0.965-0.528,1.895-1.151,2.909-1.565
		c1.517-0.62,3.058-0.686,4.521,0.275c0.982,0.645,1.232,1.636,1.329,2.688c0.173,1.885-0.339,3.701-0.62,5.542
		c-0.228,1.489-0.471,2.978-0.634,4.476c-0.083,0.769,0.478,1.191,1.241,1.064c0.274-0.047,0.551-0.078,0.819-0.145
		c0.306-0.076,0.624-0.316,0.765,0.222c0.117,0.447,0.234,0.825-0.365,1.056c-1.011,0.392-2.03,0.668-3.125,0.576
		c-0.79-0.066-1.598-0.789-1.602-1.575c-0.004-0.884,0.062-1.776,0.193-2.652c0.275-1.831,0.627-3.649,0.918-5.479
		c0.132-0.825,0.253-1.66,0.277-2.494c0.036-1.255-0.73-1.953-2.001-1.988c-1.823-0.051-3.326,0.783-4.724,1.785
		c-0.303,0.218-0.271,0.934-0.349,1.426c-0.291,1.855-0.585,3.71-0.837,5.571c-0.182,1.337-0.294,2.683-0.447,4.024
		C61.055,30.56,60.987,30.854,60.925,31.205z"/>
	<path fill-rule="evenodd" clip-rule="evenodd" fill="#1C1C1C" d="M210.595,7.953c-0.197,1.258-0.757,2.194-1.791,2.867
		c-1.709,1.112-3.809,0.947-5.141-0.521c-0.995-1.1-1.063-2.424-0.634-3.787c0.839-2.669,2.652-4.209,5.414-4.665
		c2.396-0.394,4.325,0.452,5.924,2.18c0.109,0.118,0.11,0.503,0.003,0.628c-1.574,1.854-3.623,2.932-5.945,3.526
		c-0.146,0.038-0.412-0.118-0.523-0.261c-0.632-0.812-1.361-1.055-2.2-0.692c-0.837,0.361-1.247,1.181-1.059,2.116
		c0.118,0.59,0.974,1.271,1.644,1.31c0.822,0.048,1.627-0.444,1.822-1.321c0.124-0.561,0.43-0.681,0.861-0.813
		C209.494,8.362,210.004,8.161,210.595,7.953z"/>
	<path fill-rule="evenodd" clip-rule="evenodd" fill="#1C1C1C" d="M33.003,20.948c0-0.707,0.046-1.406-0.012-2.095
		c-0.077-0.921-0.95-1.394-2.029-1.067c-1.033,0.313-2.06,0.783-2.661,1.68c-0.38,0.566-0.42,1.383-0.536,2.101
		c-0.301,1.876-0.571,3.756-0.832,5.638c-0.128,0.922-0.206,1.85-0.313,2.774c-0.045,0.39-0.105,0.778-0.161,1.182
		c-0.631,0.101-1.242,0.226-1.859,0.292c-0.491,0.053-0.41-0.354-0.38-0.625c0.075-0.692,0.191-1.377,0.296-2.065
		c0.228-1.487,0.462-2.976,0.686-4.463c0.285-1.901,0.557-3.804,0.846-5.704c0.099-0.65-0.389-1.258-1.054-1.272
		c-0.306-0.005-0.616-0.022-0.92,0.007c-0.294,0.028-0.583,0.11-0.929,0.18c-0.112-0.419-0.209-0.783-0.358-1.341
		c1.232-0.235,2.415-0.499,3.611-0.681c1.277-0.194,1.675,0.811,1.781,1.668c0.02,0.16,0.003,0.325,0.003,0.527
		c0.672-0.525,1.281-1.057,1.942-1.51c1.477-1.012,3.574-0.922,4.644,0.141c0.789,0.785,0.667,1.716,0.458,2.66
		c-0.069,0.312-0.193,0.615-0.317,0.912C34.494,20.875,34.044,21.105,33.003,20.948z"/>
	<path fill-rule="evenodd" clip-rule="evenodd" fill="#1C1C1C" d="M177.878,16.928c1.222,0,2.394,0,3.603,0
		c0,4.794,0,9.557,0,14.378c-1.174,0-2.362,0-3.603,0C177.878,26.544,177.878,21.766,177.878,16.928z"/>
	<path fill-rule="evenodd" clip-rule="evenodd" fill="#1C1C1C" d="M215.947,7.675c0.227,3.693-1.938,6.473-5.336,7.198
		c-0.656,0.141-1.367,0.059-2.051,0.021c-0.436-0.024-0.514-0.396-0.152-0.832c0.447-0.542,0.936-1.051,1.411-1.567
		c1.189-1.292,2.183-2.698,2.642-4.432c0.043-0.165,0.344-0.364,0.532-0.371C213.967,7.655,214.945,7.675,215.947,7.675z"/>
	<path fill-rule="evenodd" clip-rule="evenodd" fill="#1C1C1C" d="M177.546,12.987c0.004-1.379,0.811-2.055,2.447-2.049
		c1.063,0.003,1.975,0.896,1.934,2.027c-0.049,1.318-0.851,2.15-2.195,2.213C178.511,15.234,177.542,14.204,177.546,12.987z"/>
</g>
</svg>
